<?xml version="1.0" encoding="utf-8"?>
<!-- Svg Vector Icons : http://www.onlinewebfonts.com/icon -->
<!DOCTYPE svg PUBLIC "-//W3C//DTD SVG 1.1//EN" "http://www.w3.org/Graphics/SVG/1.1/DTD/svg11.dtd">
<svg version="1.1" xmlns="http://www.w3.org/2000/svg" xmlns:xlink="http://www.w3.org/1999/xlink" x="0px" y="0px" viewBox="0 0 1000 1000" enable-background="new 0 0 1000 1000" xml:space="preserve" fill="#fff">
<metadata> Svg Vector Icons : http://www.onlinewebfonts.com/icon </metadata>
<g><g transform="translate(0.000000,468.000000) scale(0.100000,-0.100000)"><path d="M4902.2,4050.1c-69-70.9-63.2-136.1,19.2-247.2c118.8-155.2,143.7-312.3,72.8-454.2c-15.3-26.8-63.2-92-107.3-143.7c-44.1-49.8-101.6-139.9-128.4-197.4c-44.1-93.9-49.8-130.3-49.8-316.2c0-191.6,5.7-222.3,55.6-331.5c63.2-136.1,178.2-253,253-253c59.4,0,161,95.8,161,153.3c0,49.8-26.8,101.6-97.7,191.6c-134.2,170.6-113.1,354.5,61.3,553.8c40.3,46,97.7,132.2,126.5,191.6c47.9,97.7,53.7,126.5,53.7,318.1c0,195.5-3.8,220.4-59.4,335.4C5151.4,4088.5,5015.3,4163.2,4902.2,4050.1z"/><path d="M3106.7,3067.1c-74.7-74.7-70.9-128.4,21.1-251c88.1-118.8,122.6-226.1,105.4-323.9c-15.3-86.2-70.9-193.5-122.6-239.5c-21.1-19.2-65.2-76.7-95.8-124.6c-138-216.5-155.2-527-44.1-755c118.8-239.5,274-308.5,381.3-168.6c40.2,53.7,28.7,141.8-30.7,212.7c-86.2,107.3-122.6,193.5-122.6,297c0,113.1,32.6,182.1,143.7,310.4c126.5,145.6,174.4,272.1,184,477.2c9.6,207-21.1,327.7-122.6,479.1C3302.1,3132.2,3202.5,3161,3106.7,3067.1z"/><path d="M6740,3099.7c-101.6-59.4-115-172.5-30.7-268.3c95.8-111.1,122.6-182,113-312.4c-7.6-124.6-26.8-162.9-176.3-348.8c-195.4-243.4-201.2-649.6-11.5-912.1c99.7-139.9,197.4-164.8,289.4-72.8c74.7,74.7,70.9,128.4-21.1,251c-153.3,205-149.5,366,9.6,553.8c46,53.7,99.6,124.6,120.7,159.1c120.7,197.4,132.2,517.4,24.9,733.9C6962.3,3078.6,6843.5,3159.1,6740,3099.7z"/><path d="M4827.5,1762.1c-253-65.2-507.8-300.9-597.9-553.8c-15.3-46-32.6-136.1-36.4-201.2l-7.7-116.9l-189.7-49.8C3227.4,641,2575.9,269.3,2016.3-288.4c-580.6-576.8-983.1-1301.2-1157.4-2073.4l-44.1-197.4l-168.6-113C314.6-2896.4,100-3168.6,100-3364c0-385.2,663-785.7,1734.3-1046.3c927.5-224.2,1945-331.5,3161.9-331.5c981.2-1.9,1649.9,49.8,2475.9,189.7c1138.3,193.5,1937.4,492.5,2268.9,847c126.5,134.1,159.1,205,159.1,341.1c1.9,149.5-69,281.7-237.6,450.3c-105.4,103.5-381.3,308.5-444.6,329.6c-9.6,3.8-38.3,101.6-65.1,216.5c-182.1,795.3-571.1,1494.7-1157.5,2079.2C7447.1,257.8,6833.9,614.2,6084.6,819.3l-258.7,70.9l-5.7,105.4c-23,306.6-212.7,578.7-498.2,712.9C5183.9,1771.7,4963.6,1796.6,4827.5,1762.1z M5247.2,1401.8c138-70.9,220.4-195.5,247.2-373.7l15.3-93.9l-84.3,11.5c-195.5,24.9-482.9,28.7-688,13.4c-120.7-9.6-224.2-13.4-228-9.6c-3.8,3.8,1.9,57.5,15.3,116.9c34.5,176.3,139.9,300.9,300.9,362.2C4931,1467,5145.6,1453.6,5247.2,1401.8z M5657.3,585.5C7142.4,345.9,8357.3-729.1,8773.2-2170.2c69-245.3,141.8-684.1,141.8-870v-116.9l-387.1-78.6c-2330.2-477.2-4616.4-484.8-6938.9-21.1c-260.6,51.7-477.2,93.9-482.9,93.9c-21.1,0-7.7,262.5,21.1,465.7C1353.3-1133.4,2501.1,139,4026.5,516.5c122.6,30.7,300.9,63.2,394.8,74.7c95.8,11.5,193.5,24.9,220.4,28.7C4748.9,639.1,5484.8,614.2,5657.3,585.5z M832-3433c517.4-138,1467.9-304.7,2238.2-389c737.8-82.4,1054-97.7,1945-97.7c975.4,1.9,1481.3,32.6,2337.9,145.6c571.1,74.7,1410.4,233.8,1835.8,344.9l72.8,19.2l-5.7,210.8c-3.8,115-1.9,208.9,1.9,208.9c3.8,0,53.7-34.5,109.2-78.6c201.2-155.2,256.8-281.7,176.3-400.5c-67.1-101.6-312.4-252.9-586.4-360.3c-1360.6-536.6-3702.3-735.9-5754.7-492.5c-1142.1,136-2205.7,433.1-2610,730.1c-226.1,164.8-214.6,316.2,42.2,517.4l107.3,84.3l5.7-210.8l5.8-208.9L832-3433z"/><path d="M4507.5,276.9c-343-47.9-421.6-86.2-421.6-210.8c0-76.7,69-162.9,128.4-162.9c19.2,0,103.5,13.4,187.8,28.7c84.3,17.2,253,34.5,373.7,40.2c120.7,5.7,239.5,13.4,264.4,19.2c116.9,23,162.9,189.7,74.7,272.1c-40.3,38.3-65.2,42.2-235.7,40.2C4775.8,301.9,4607.1,290.4,4507.5,276.9z"/><path d="M3210.2-177.2c-239.5-128.4-638.1-475.2-854.7-743.5c-364.1-450.3-647.7-1036.7-755-1561.8c-30.7-147.6-30.7-168.6-3.8-216.5c15.3-28.8,53.7-63.2,84.3-78.6c49.8-23,63.2-23,122.6,9.6c65.2,34.5,69,44.1,136.1,304.7c124.6,490.6,279.8,822.1,551.9,1197.7c203.1,275.9,567.2,615.1,843.2,785.7c111.2,67.1,138,105.4,138,185.9c-1.9,61.3-28.7,105.4-90.1,136C3325.1-125.5,3302.1-129.3,3210.2-177.2z"/></g></g>
</svg>